<?xml version="1.0" encoding="utf-8"?>
<!-- Generator: Adobe Illustrator 25.3.1, SVG Export Plug-In . SVG Version: 6.00 Build 0)  -->
<svg version="1.1" id="Layer_1" xmlns="http://www.w3.org/2000/svg" xmlns:xlink="http://www.w3.org/1999/xlink" x="0px" y="0px"
	 viewBox="0 0 850.39 850.39" style="enable-background:new 0 0 850.39 850.39;" xml:space="preserve">
<style type="text/css">
	.st0{fill:#FFFFFF;stroke:#000000;stroke-miterlimit:10;}
</style>
<path class="st0" d="M482,314"/>
<path class="st0" d="M671,158c-8.05-4.54-18.18-10.25-27-14c-42.56-18.1-112.65-15.25-141.73,21c-13.28,16.55-8.25,27.9-12.27,105
	c-3.82,73.27-5.98,110.16-18,123c-46.8,49.97-185.9-29.38-201-4c-19.22,32.31,193.47,182.13,174,216c-15.78,27.45-163-57.71-210-7
	c-26.55,28.65-19.23,98.61,17,127c63.5,49.76,166.67-66.68,282-20c70.19,28.41,95.89,97.4,126,85c33.18-13.67,7.52-99.75,58-133
	c32.64-21.5,68.29-1.92,80-22c12.98-22.26-29.45-48.65-39-102c-11.7-65.39,42.12-81.12,46-162c3.62-75.6-39.52-142.93-71-170
	C726.86,194.86,703.49,176.32,671,158z"/>
</svg>
